<svg xmlns="http://www.w3.org/2000/svg" viewBox="0 0 32 32" width="32" height="32">
  <g transform="translate(7.3, 0.72) scale(0.94)">
    <path d="M1.48 30V27.96L5.68 27.56H8.04L12.68 27.96V30ZM4.56 30Q4.6 28.56 4.6 27.12Q4.6 25.68 4.62 24.24Q4.64 22.8 4.64 21.4V12.76H1.4V10.76L5.96 10.12L4.68 11.28L4.76 10.56Q4.92 8.48 5.34 7Q5.76 5.52 6.46 4.42Q7.16 3.32 8.12 2.4Q9.28 1.32 10.76 0.8Q12.24 0.28 13.84 0.28Q15.48 0.28 16.64 0.86Q17.8 1.44 18.16 2.64Q18.16 3.52 17.52 4.14Q16.88 4.76 15.68 4.76Q14.72 4.76 13.96 4.28Q13.2 3.8 12.36 3L10.88 1.56L11.52 1.68H11.64L12.16 1.52Q11.64 1.68 11.28 1.92Q10.92 2.16 10.52 2.72Q10.08 3.4 9.76 4.18Q9.44 4.96 9.24 6Q9.04 7.04 8.98 8.42Q8.92 9.8 8.96 11.64V21.4Q8.96 22.8 8.98 24.24Q9 25.68 9 27.12Q9 28.56 9.04 30ZM7 12.76V10.32H13.92V12.76Z" fill="#1A1A1A"/>
  </g>
</svg>
