<svg width="16" height="16" viewBox="0 0 16 16" fill="none" xmlns="http://www.w3.org/2000/svg">
<rect width="16" height="16" rx="1" fill="white"/>
<path d="M4.30474 10.8156H2.54517V10.4654H3.24771V5.53691H2.54517V5.18457H4.30474V6.5918H4.65708V7.64883H5.00728V8.70371H5.35962V9.76074H5.71196V10.8156H5.00728V9.76074H4.65708V8.70371H4.30474V7.64883H3.95239V6.5918H3.60005V10.4654H4.30474V10.8156ZM8.52856 10.8156H6.41665V10.4654H7.11919V6.5918H6.76899V5.18457H8.52856V5.53691H7.82388V10.4654H8.52856V10.8156ZM6.76899 7.64883H6.41665V6.5918H6.76899V7.64883ZM6.41665 8.70371H6.06431V7.64883H6.41665V8.70371ZM6.06431 9.76074H5.71196V8.70371H6.06431V9.76074Z" fill="black"/>
<path d="M11.343 10.8156H9.2311V10.4654H9.93364V5.53691H9.2311V5.18457H13.1026V5.88926H13.4549V6.5918H13.1026V6.2416H12.7502V5.88926H12.3979V5.53691H10.6383V7.64883H12.3979V6.94414H12.7502V8.70371H12.3979V8.00117H10.6383V10.4654H11.343V10.8156Z" fill="black"/>
</svg>
