<svg width="500" height="500" viewBox="0 0 500 500" fill="none" xmlns="http://www.w3.org/2000/svg">
<rect width="500" height="500" fill="black"/>
<path d="M130.25 134H139.5V143.24H130.25V134ZM130.25 143.24H139.5V152.48H130.25V143.24ZM139.5 143.24H148.75V152.48H139.5V143.24ZM139.5 152.48H148.75V161.72H139.5V152.48ZM148.75 152.48H158V161.72H148.75V152.48ZM148.75 161.72H158V170.96H148.75V161.72ZM158 161.72H167.25V170.96H158V161.72ZM158 152.48H167.25V161.72H158V152.48ZM167.25 152.48H176.5V161.72H167.25V152.48ZM167.25 161.72H176.5V170.96H167.25V161.72ZM176.5 143.24H185.75V152.48H176.5V143.24ZM185.75 152.48H195V161.72H185.75V152.48ZM195 152.48H204.25V161.72H195V152.48ZM176.5 152.48H185.75V161.72H176.5V152.48ZM176.5 161.72H185.75V170.96H176.5V161.72ZM185.75 161.72H195V170.96H185.75V161.72ZM195 161.72H204.25V170.96H195V161.72ZM204.25 161.72H213.5V170.96H204.25V161.72ZM213.5 161.72H222.75V170.96H213.5V161.72ZM222.75 161.72H232V170.96H222.75V161.72ZM232 161.72H241.25V170.96H232V161.72ZM241.25 161.72H250.5V170.96H241.25V161.72ZM250.5 161.72H259.75V170.96H250.5V161.72ZM259.75 161.72H269V170.96H259.75V161.72ZM269 161.72H278.25V170.96H269V161.72ZM278.25 161.72H287.5V170.96H278.25V161.72ZM287.5 161.72H296.75V170.96H287.5V161.72ZM287.5 152.48H296.75V161.72H287.5V152.48ZM278.25 152.48H287.5V161.72H278.25V152.48ZM269 152.48H278.25V161.72H269V152.48ZM259.75 152.48H269V161.72H259.75V152.48ZM241.25 152.48H250.5V161.72H241.25V152.48ZM232 152.48H241.25V161.72H232V152.48ZM222.75 152.48H232V161.72H222.75V152.48ZM213.5 152.48H222.75V161.72H213.5V152.48ZM204.25 152.48H213.5V161.72H204.25V152.48ZM250.5 152.48H259.75V161.72H250.5V152.48ZM241.25 143.24H250.5V152.48H241.25V143.24ZM241.25 134H250.5V143.24H241.25V134ZM232 134H241.25V143.24H232V134ZM232 143.24H241.25V152.48H232V143.24ZM250.5 134H259.75V143.24H250.5V134ZM259.75 134H269V143.24H259.75V134ZM259.75 143.24H269V152.48H259.75V143.24ZM250.5 143.24H259.75V152.48H250.5V143.24ZM296.75 152.48H306V161.72H296.75V152.48ZM296.75 161.72H306V170.96H296.75V161.72ZM306 161.72H315.25V170.96H306V161.72ZM306 152.48H315.25V161.72H306V152.48ZM306 143.24H315.25V152.48H306V143.24ZM306 134H315.25V143.24H306V134ZM315.25 134H324.5V143.24H315.25V134ZM315.25 143.24H324.5V152.48H315.25V143.24ZM315.25 152.48H324.5V161.72H315.25V152.48ZM315.25 161.72H324.5V170.96H315.25V161.72ZM324.5 161.72H333.75V170.96H324.5V161.72ZM333.75 161.72H343V170.96H333.75V161.72ZM333.75 152.48H343V161.72H333.75V152.48ZM333.75 143.24H343V152.48H333.75V143.24ZM333.75 134H343V143.24H333.75V134ZM324.5 134H333.75V143.24H324.5V134ZM324.5 143.24H333.75V152.48H324.5V143.24ZM324.5 152.48H333.75V161.72H324.5V152.48ZM343 152.48H352.25V161.72H343V152.48ZM352.25 152.48H361.5V161.72H352.25V152.48ZM352.25 161.72H361.5V170.96H352.25V161.72ZM343 161.72H352.25V170.96H343V161.72ZM361.5 152.48H370.75V161.72H361.5V152.48ZM370.75 152.48H380V161.72H370.75V152.48ZM370.75 161.72H380V170.96H370.75V161.72ZM361.5 161.72H370.75V170.96H361.5V161.72ZM176.5 170.96H185.75V180.2H176.5V170.96ZM176.5 180.2H185.75V189.44H176.5V180.2ZM176.5 189.44H185.75V198.68H176.5V189.44ZM176.5 198.68H185.75V207.92H176.5V198.68ZM176.5 207.92H185.75V217.16H176.5V207.92ZM185.75 207.92H195V217.16H185.75V207.92ZM185.75 198.68H195V207.92H185.75V198.68ZM185.75 189.44H195V198.68H185.75V189.44ZM185.75 180.2H195V189.44H185.75V180.2ZM185.75 170.96H195V180.2H185.75V170.96ZM195 170.96H204.25V180.2H195V170.96ZM204.25 170.96H213.5V180.2H204.25V170.96ZM204.25 180.2H213.5V189.44H204.25V180.2ZM204.25 189.44H213.5V198.68H204.25V189.44ZM204.25 198.68H213.5V207.92H204.25V198.68ZM204.25 207.92H213.5V217.16H204.25V207.92ZM204.25 217.16H213.5V226.4H204.25V217.16ZM195 217.16H204.25V226.4H195V217.16ZM195 207.92H204.25V217.16H195V207.92ZM195 198.68H204.25V207.92H195V198.68ZM195 189.44H204.25V198.68H195V189.44ZM195 180.2H204.25V189.44H195V180.2ZM176.5 217.16H185.75V226.4H176.5V217.16ZM176.5 226.4H185.75V235.64H176.5V226.4ZM176.5 235.64H185.75V244.88H176.5V235.64ZM185.75 235.64H195V244.88H185.75V235.64ZM195 235.64H204.25V244.88H195V235.64ZM195 226.4H204.25V235.64H195V226.4ZM204.25 226.4H213.5V235.64H204.25V226.4ZM185.75 217.16H195V226.4H185.75V217.16ZM185.75 226.4H195V235.64H185.75V226.4ZM204.25 235.64H213.5V244.88H204.25V235.64ZM167.25 207.92H176.5V217.16H167.25V207.92ZM158 207.92H167.25V217.16H158V207.92ZM158 217.16H167.25V226.4H158V217.16ZM167.25 217.16H176.5V226.4H167.25V217.16ZM148.75 207.92H158V217.16H148.75V207.92ZM139.5 207.92H148.75V217.16H139.5V207.92ZM139.5 217.16H148.75V226.4H139.5V217.16ZM148.75 217.16H158V226.4H148.75V217.16ZM167.25 244.88H176.5V254.12H167.25V244.88ZM158 244.88H167.25V254.12H158V244.88ZM148.75 244.88H158V254.12H148.75V244.88ZM139.5 244.88H148.75V254.12H139.5V244.88ZM139.5 254.12H148.75V263.36H139.5V254.12ZM148.75 254.12H158V263.36H148.75V254.12ZM158 254.12H167.25V263.36H158V254.12ZM167.25 254.12H176.5V263.36H167.25V254.12ZM176.5 254.12H185.75V263.36H176.5V254.12ZM176.5 244.88H185.75V254.12H176.5V244.88ZM185.75 244.88H195V254.12H185.75V244.88ZM195 244.88H204.25V254.12H195V244.88ZM204.25 244.88H213.5V254.12H204.25V244.88ZM204.25 254.12H213.5V263.36H204.25V254.12ZM195 254.12H204.25V263.36H195V254.12ZM185.75 254.12H195V263.36H185.75V254.12ZM176.5 263.36H185.75V272.6H176.5V263.36ZM185.75 263.36H195V272.6H185.75V263.36ZM195 263.36H204.25V272.6H195V263.36ZM204.25 263.36H213.5V272.6H204.25V263.36ZM204.25 272.6H213.5V281.84H204.25V272.6ZM195 272.6H204.25V281.84H195V272.6ZM185.75 272.6H195V281.84H185.75V272.6ZM176.5 272.6H185.75V281.84H176.5V272.6ZM176.5 281.84H185.75V291.08H176.5V281.84ZM185.75 281.84H195V291.08H185.75V281.84ZM185.75 291.08H195V300.32H185.75V291.08ZM176.5 291.08H185.75V300.32H176.5V291.08ZM259.75 170.96H269V180.2H259.75V170.96ZM250.5 170.96H259.75V180.2H250.5V170.96ZM250.5 180.2H259.75V189.44H250.5V180.2ZM259.75 180.2H269V189.44H259.75V180.2ZM269 170.96H278.25V180.2H269V170.96ZM278.25 170.96H287.5V180.2H278.25V170.96ZM278.25 180.2H287.5V189.44H278.25V180.2ZM269 180.2H278.25V189.44H269V180.2ZM250.5 189.44H259.75V198.68H250.5V189.44ZM250.5 198.68H259.75V207.92H250.5V198.68ZM250.5 207.92H259.75V217.16H250.5V207.92ZM250.5 217.16H259.75V226.4H250.5V217.16ZM250.5 226.4H259.75V235.64H250.5V226.4ZM250.5 235.64H259.75V244.88H250.5V235.64ZM250.5 244.88H259.75V254.12H250.5V244.88ZM250.5 254.12H259.75V263.36H250.5V254.12ZM250.5 263.36H259.75V272.6H250.5V263.36ZM250.5 272.6H259.75V281.84H250.5V272.6ZM250.5 281.84H259.75V291.08H250.5V281.84ZM250.5 291.08H259.75V300.32H250.5V291.08ZM250.5 300.32H259.75V309.56H250.5V300.32ZM250.5 309.56H259.75V318.8H250.5V309.56ZM250.5 318.8H259.75V328.04H250.5V318.8ZM250.5 328.04H259.75V337.28H250.5V328.04ZM250.5 337.28H259.75V346.52H250.5V337.28ZM250.5 346.52H259.75V355.76H250.5V346.52ZM250.5 355.76H259.75V365H250.5V355.76ZM259.75 355.76H269V365H259.75V355.76ZM269 355.76H278.25V365H269V355.76ZM278.25 355.76H287.5V365H278.25V355.76ZM278.25 346.52H287.5V355.76H278.25V346.52ZM278.25 337.28H287.5V346.52H278.25V337.28ZM278.25 328.04H287.5V337.28H278.25V328.04ZM278.25 309.56H287.5V318.8H278.25V309.56ZM278.25 300.32H287.5V309.56H278.25V300.32ZM278.25 291.08H287.5V300.32H278.25V291.08ZM278.25 281.84H287.5V291.08H278.25V281.84ZM278.25 272.6H287.5V281.84H278.25V272.6ZM278.25 263.36H287.5V272.6H278.25V263.36ZM278.25 318.8H287.5V328.04H278.25V318.8ZM269 281.84H278.25V291.08H269V281.84ZM269 272.6H278.25V281.84H269V272.6ZM278.25 254.12H287.5V263.36H278.25V254.12ZM278.25 244.88H287.5V254.12H278.25V244.88ZM278.25 235.64H287.5V244.88H278.25V235.64ZM269 235.64H278.25V244.88H269V235.64ZM269 226.4H278.25V235.64H269V226.4ZM269 217.16H278.25V226.4H269V217.16ZM278.25 207.92H287.5V217.16H278.25V207.92ZM278.25 198.68H287.5V207.92H278.25V198.68ZM278.25 189.44H287.5V198.68H278.25V189.44ZM278.25 217.16H287.5V226.4H278.25V217.16ZM278.25 226.4H287.5V235.64H278.25V226.4ZM269 198.68H278.25V207.92H269V198.68ZM269 207.92H278.25V217.16H269V207.92ZM259.75 217.16H269V226.4H259.75V217.16ZM259.75 235.64H269V244.88H259.75V235.64ZM259.75 244.88H269V254.12H259.75V244.88ZM269 244.88H278.25V254.12H269V244.88ZM269 254.12H278.25V263.36H269V254.12ZM269 189.44H278.25V198.68H269V189.44ZM259.75 198.68H269V207.92H259.75V198.68ZM259.75 207.92H269V217.16H259.75V207.92ZM259.75 226.4H269V235.64H259.75V226.4ZM259.75 189.44H269V198.68H259.75V189.44ZM259.75 254.12H269V263.36H259.75V254.12ZM259.75 263.36H269V272.6H259.75V263.36ZM259.75 272.6H269V281.84H259.75V272.6ZM259.75 281.84H269V291.08H259.75V281.84ZM259.75 291.08H269V300.32H259.75V291.08ZM259.75 300.32H269V309.56H259.75V300.32ZM259.75 309.56H269V318.8H259.75V309.56ZM259.75 318.8H269V328.04H259.75V318.8ZM259.75 328.04H269V337.28H259.75V328.04ZM269 300.32H278.25V309.56H269V300.32ZM269 291.08H278.25V300.32H269V291.08ZM269 263.36H278.25V272.6H269V263.36ZM269 309.56H278.25V318.8H269V309.56ZM269 318.8H278.25V328.04H269V318.8ZM269 328.04H278.25V337.28H269V328.04ZM269 337.28H278.25V346.52H269V337.28ZM269 346.52H278.25V355.76H269V346.52ZM259.75 346.52H269V355.76H259.75V346.52ZM259.75 337.28H269V346.52H259.75V337.28ZM241.25 337.28H250.5V346.52H241.25V337.28ZM232 337.28H241.25V346.52H232V337.28ZM232 328.04H241.25V337.28H232V328.04ZM241.25 328.04H250.5V337.28H241.25V328.04ZM287.5 328.04H296.75V337.28H287.5V328.04ZM296.75 328.04H306V337.28H296.75V328.04ZM296.75 337.28H306V346.52H296.75V337.28ZM287.5 337.28H296.75V346.52H287.5V337.28ZM241.25 235.64H250.5V244.88H241.25V235.64ZM241.25 226.4H250.5V235.64H241.25V226.4ZM232 226.4H241.25V235.64H232V226.4ZM232 235.64H241.25V244.88H232V235.64ZM287.5 226.4H296.75V235.64H287.5V226.4ZM287.5 235.64H296.75V244.88H287.5V235.64ZM296.75 235.64H306V244.88H296.75V235.64ZM296.75 226.4H306V235.64H296.75V226.4ZM333.75 170.96H343V180.2H333.75V170.96ZM324.5 170.96H333.75V180.2H324.5V170.96ZM324.5 180.2H333.75V189.44H324.5V180.2ZM333.75 180.2H343V189.44H333.75V180.2ZM343 180.2H352.25V189.44H343V180.2ZM343 170.96H352.25V180.2H343V170.96ZM352.25 170.96H361.5V180.2H352.25V170.96ZM352.25 180.2H361.5V189.44H352.25V180.2ZM324.5 189.44H333.75V198.68H324.5V189.44ZM324.5 198.68H333.75V207.92H324.5V198.68ZM324.5 207.92H333.75V217.16H324.5V207.92ZM324.5 226.4H333.75V235.64H324.5V226.4ZM324.5 235.64H333.75V244.88H324.5V235.64ZM324.5 217.16H333.75V226.4H324.5V217.16ZM324.5 244.88H333.75V254.12H324.5V244.88ZM324.5 254.12H333.75V263.36H324.5V254.12ZM324.5 263.36H333.75V272.6H324.5V263.36ZM324.5 272.6H333.75V281.84H324.5V272.6ZM324.5 281.84H333.75V291.08H324.5V281.84ZM324.5 291.08H333.75V300.32H324.5V291.08ZM324.5 300.32H333.75V309.56H324.5V300.32ZM324.5 309.56H333.75V318.8H324.5V309.56ZM324.5 318.8H333.75V328.04H324.5V318.8ZM324.5 328.04H333.75V337.28H324.5V328.04ZM324.5 337.28H333.75V346.52H324.5V337.28ZM333.75 337.28H343V346.52H333.75V337.28ZM343 337.28H352.25V346.52H343V337.28ZM352.25 337.28H361.5V346.52H352.25V337.28ZM352.25 328.04H361.5V337.28H352.25V328.04ZM352.25 318.8H361.5V328.04H352.25V318.8ZM352.25 309.56H361.5V318.8H352.25V309.56ZM352.25 300.32H361.5V309.56H352.25V300.32ZM352.25 291.08H361.5V300.32H352.25V291.08ZM352.25 281.84H361.5V291.08H352.25V281.84ZM352.25 272.6H361.5V281.84H352.25V272.6ZM343 263.36H352.25V272.6H343V263.36ZM343 254.12H352.25V263.36H343V254.12ZM343 244.88H352.25V254.12H343V244.88ZM343 235.64H352.25V244.88H343V235.64ZM352.25 254.12H361.5V263.36H352.25V254.12ZM352.25 263.36H361.5V272.6H352.25V263.36ZM352.25 244.88H361.5V254.12H352.25V244.88ZM352.25 235.64H361.5V244.88H352.25V235.64ZM352.25 226.4H361.5V235.64H352.25V226.4ZM352.25 217.16H361.5V226.4H352.25V217.16ZM352.25 207.92H361.5V217.16H352.25V207.92ZM352.25 198.68H361.5V207.92H352.25V198.68ZM352.25 189.44H361.5V198.68H352.25V189.44ZM343 217.16H352.25V226.4H343V217.16ZM343 226.4H352.25V235.64H343V226.4ZM343 207.92H352.25V217.16H343V207.92ZM343 189.44H352.25V198.68H343V189.44ZM333.75 189.44H343V198.68H333.75V189.44ZM333.75 198.68H343V207.92H333.75V198.68ZM333.75 207.92H343V217.16H333.75V207.92ZM333.75 217.16H343V226.4H333.75V217.16ZM333.75 226.4H343V235.64H333.75V226.4ZM343 198.68H352.25V207.92H343V198.68ZM333.75 235.64H343V244.88H333.75V235.64ZM333.75 244.88H343V254.12H333.75V244.88ZM333.75 254.12H343V263.36H333.75V254.12ZM333.75 263.36H343V272.6H333.75V263.36ZM333.75 272.6H343V281.84H333.75V272.6ZM333.75 281.84H343V291.08H333.75V281.84ZM333.75 291.08H343V300.32H333.75V291.08ZM333.75 300.32H343V309.56H333.75V300.32ZM333.75 309.56H343V318.8H333.75V309.56ZM333.75 318.8H343V328.04H333.75V318.8ZM333.75 328.04H343V337.28H333.75V328.04ZM343 328.04H352.25V337.28H343V328.04ZM343 318.8H352.25V328.04H343V318.8ZM343 309.56H352.25V318.8H343V309.56ZM343 291.08H352.25V300.32H343V291.08ZM343 281.84H352.25V291.08H343V281.84ZM343 272.6H352.25V281.84H343V272.6ZM343 300.32H352.25V309.56H343V300.32ZM352.25 346.52H361.5V355.76H352.25V346.52ZM343 346.52H352.25V355.76H343V346.52ZM343 355.76H352.25V365H343V355.76ZM352.25 355.76H361.5V365H352.25V355.76ZM361.5 328.04H370.75V337.28H361.5V328.04ZM370.75 328.04H380V337.28H370.75V328.04ZM370.75 337.28H380V346.52H370.75V337.28ZM361.5 337.28H370.75V346.52H361.5V337.28ZM204.25 281.84H213.5V291.08H204.25V281.84ZM195 281.84H204.25V291.08H195V281.84ZM185.75 300.32H195V309.56H185.75V300.32ZM176.5 300.32H185.75V309.56H176.5V300.32ZM167.25 318.8H176.5V328.04H167.25V318.8ZM158 318.8H167.25V328.04H158V318.8ZM167.25 309.56H176.5V318.8H167.25V309.56ZM148.75 328.04H158V337.28H148.75V328.04ZM139.5 328.04H148.75V337.28H139.5V328.04ZM139.5 337.28H148.75V346.52H139.5V337.28ZM148.75 337.28H158V346.52H148.75V337.28ZM130.25 328.04H139.5V337.28H130.25V328.04ZM121 328.04H130.25V337.28H121V328.04ZM130.25 337.28H139.5V346.52H130.25V337.28ZM167.25 346.52H176.5V355.76H167.25V346.52ZM158 346.52H167.25V355.76H158V346.52ZM158 355.76H167.25V365H158V355.76ZM167.25 355.76H176.5V365H167.25V355.76ZM176.5 346.52H185.75V355.76H176.5V346.52ZM185.75 346.52H195V355.76H185.75V346.52ZM185.75 355.76H195V365H185.75V355.76ZM176.5 355.76H185.75V365H176.5V355.76ZM158 328.04H167.25V337.28H158V328.04ZM204.25 337.28H213.5V346.52H204.25V337.28ZM195 337.28H204.25V346.52H195V337.28ZM204.25 328.04H213.5V337.28H204.25V328.04ZM167.25 337.28H176.5V346.52H167.25V337.28ZM158 337.28H167.25V346.52H158V337.28ZM213.5 318.8H222.75V328.04H213.5V318.8ZM222.75 309.56H232V318.8H222.75V309.56ZM222.75 318.8H232V328.04H222.75V318.8ZM213.5 328.04H222.75V337.28H213.5V328.04ZM195 346.52H204.25V355.76H195V346.52ZM287.5 346.52H296.75V355.76H287.5V346.52ZM361.5 346.52H370.75V355.76H361.5V346.52ZM343 143.24H352.25V152.48H343V143.24ZM296.75 143.24H306V152.48H296.75V143.24ZM222.75 143.24H232V152.48H222.75V143.24ZM269 143.24H278.25V152.48H269V143.24ZM167.25 143.24H176.5V152.48H167.25V143.24ZM185.75 143.24H195V152.48H185.75V143.24ZM204.25 143.24H213.5V152.48H204.25V143.24ZM176.5 309.56H185.75V318.8H176.5V309.56ZM195 291.08H204.25V300.32H195V291.08ZM148.75 346.52H158V355.76H148.75V346.52ZM139.5 346.52H148.75V355.76H139.5V346.52ZM148.75 355.76H158V365H148.75V355.76ZM176.5 134H185.75V143.24H176.5V134ZM167.25 134H176.5V143.24H167.25V134ZM158 143.24H167.25V152.48H158V143.24ZM121 337.28H130.25V346.52H121V337.28ZM241.25 346.52H250.5V355.76H241.25V346.52ZM333.75 346.52H343V355.76H333.75V346.52Z" fill="white"/>
</svg>
