<svg width="225" height="225" viewBox="0 0 225 225" fill="none" xmlns="http://www.w3.org/2000/svg">
<rect width="225" height="225" fill="black"/>
<path d="M90.3031 148.104L76.7335 172.481C61.0783 164.572 48.5649 158.18 39.1935 153.305C51.2193 142.092 57.9093 134.21 59.2636 129.659C59.4803 128.847 59.5886 127.899 59.5886 126.816C59.5886 121.669 57.3405 114.14 52.8444 104.227C48.3483 94.3134 45.3418 87.515 43.825 83.8314C42.3624 80.0937 41.6312 77.2227 41.6312 75.2184C41.6312 73.2141 41.9562 71.4806 42.6062 70.018C44.123 66.6595 47.6982 63.5988 53.3319 60.8362C58.9656 58.0193 67.5245 54.4982 79.0086 50.273C80.6337 54.0649 81.8255 56.9088 82.5839 58.8048C75.3251 61.1883 71.3435 64.1676 70.6393 67.7429C70.4768 68.5012 70.3956 69.3138 70.3956 70.1805C70.3956 73.2682 71.4248 76.9247 73.4833 81.15C92.6054 62.4071 103.06 52.1147 104.848 50.273C109.669 53.469 113.759 56.5296 117.117 59.4548C120.53 62.3258 124.62 64.9531 129.387 67.3366L145.638 50.273C152.139 53.794 158.666 57.3151 165.221 60.8362C171.775 64.3031 178.601 67.2824 185.697 69.7742C176.976 75.733 172.371 85.8357 171.884 100.083L170.99 130.31C170.99 130.905 170.99 131.501 170.99 132.097C170.99 140.873 174.105 146.209 180.334 148.104L167.415 172.481C159.56 169.61 154.116 165.168 151.082 159.155C148.103 153.088 146.613 144.719 146.613 134.047C146.613 133.289 146.613 132.531 146.613 131.772L146.776 111.296C146.776 106.366 147.669 102.06 149.457 98.3762C151.245 94.6926 153.574 90.9819 156.445 87.2442C145.557 79.2811 137.404 74.9746 131.987 74.3246C129.929 77.4123 128.872 81.0688 128.818 85.294C128.818 89.5193 128.71 94.4488 128.493 100.083L127.599 130.31C127.599 130.905 127.599 131.501 127.599 132.097C127.599 141.902 130.172 147.644 135.319 149.323L116.305 172.481C113.38 168.798 110.075 165.304 106.392 161.999C102.708 158.695 99.2412 155.661 95.991 152.899C97.6161 151.003 99.2141 148.023 100.785 143.96C102.356 139.898 103.169 135.835 103.223 131.772L106.067 81.475C101.354 77.954 97.6974 76.1934 95.0972 76.1934C94.4472 76.1934 93.8513 76.3018 93.3096 76.5184C90.7636 77.656 85.5903 81.9896 77.7898 89.5193L78.8461 91.3882C82.9089 98.972 84.9403 105.256 84.9403 110.239C84.9403 111.594 84.7778 112.867 84.4527 114.058C82.9902 119.53 77.844 128.007 69.0142 139.491C74.1062 143.175 81.2025 146.046 90.3031 148.104Z" fill="white"/>
</svg>
